<?xml version="1.0" encoding="UTF-8" standalone="no"?>
<!-- Uploaded to: SVG Repo, www.svgrepo.com, Generator: SVG Repo Mixer Tools -->

<svg
   fill="#000000"
   version="1.1"
   id="Capa_1"
   width="800px"
   height="800px"
   viewBox="0 0 595.021 595.021"
   xml:space="preserve"
   sodipodi:docname="stop.svg"
   inkscape:version="1.2.2 (b0a84865, 2022-12-01)"
   xmlns:inkscape="http://www.inkscape.org/namespaces/inkscape"
   xmlns:sodipodi="http://sodipodi.sourceforge.net/DTD/sodipodi-0.dtd"
   xmlns="http://www.w3.org/2000/svg"
   xmlns:svg="http://www.w3.org/2000/svg"><defs
   id="defs31" /><sodipodi:namedview
   id="namedview29"
   pagecolor="#ffffff"
   bordercolor="#000000"
   borderopacity="0.25"
   inkscape:showpageshadow="2"
   inkscape:pageopacity="0.0"
   inkscape:pagecheckerboard="0"
   inkscape:deskcolor="#d1d1d1"
   showgrid="false"
   inkscape:zoom="0.60964412"
   inkscape:cx="316.57814"
   inkscape:cy="426.47832"
   inkscape:window-width="1376"
   inkscape:window-height="746"
   inkscape:window-x="128"
   inkscape:window-y="132"
   inkscape:window-maximized="0"
   inkscape:current-layer="Capa_1"
   showguides="false" />

<rect
   style="fill:#ff2a2a;stroke-width:0.743776;fill-opacity:1"
   id="rect321"
   width="43.920616"
   height="596.58838"
   x="0"
   y="1.2200171" /><rect
   style="fill:#ff2a2a;fill-opacity:1;stroke-width:0.743776"
   id="rect530"
   width="43.920616"
   height="596.58838"
   x="551.44775"
   y="1.2200171" /><rect
   style="fill:#ff2a2a;fill-opacity:1;stroke-width:0.743776"
   id="rect586"
   width="586.82819"
   height="42.700596"
   x="0"
   y="1.2200171" /><rect
   style="fill:#ff2a2a;fill-opacity:1;stroke-width:0.743776"
   id="rect586-0"
   width="586.82819"
   height="42.700596"
   x="9.1501513"
   y="553.81281" /><path
   style="fill:#ff2a2a;fill-opacity:0.6;stroke-width:1.6403"
   d="m 56.766597,57.10619 c -1.671019,43.04117 -0.235159,86.63499 -0.714428,129.88815 0,185.35404 0,370.70808 0,556.06212 6.021927,6.77475 18.925648,1.17032 27.603194,2.99866 219.253607,2e-5 438.507187,0 657.760797,0 6.77475,-6.02192 1.17032,-18.92563 2.99866,-27.60318 0,-219.80037 2e-5,-439.60073 0,-659.401096 -6.02192,-6.774749 -18.92563,-1.170319 -27.60318,-2.998675 -219.25361,0 -438.50719,0 -657.760796,0 l -1.489388,0.687249 z"
   id="path955"
   transform="scale(0.74377625)" /></svg>
